<mxfile host="app.diagrams.net" agent="Mozilla/5.0 (Windows NT 10.0; Win64; x64) AppleWebKit/537.36 (KHTML, like Gecko) Chrome/135.0.0.0 Safari/537.36" version="26.2.13">
  <diagram id="f106602c-feb2-e66a-4537-3a34d633f6aa" name="Page-1">
    <mxGraphModel dx="927" dy="640" grid="1" gridSize="10" guides="1" tooltips="1" connect="1" arrows="1" fold="1" page="1" pageScale="1" pageWidth="1169" pageHeight="827" background="none" math="0" shadow="0">
      <root>
        <mxCell id="0" />
        <mxCell id="1" parent="0" />
        <mxCell id="tkHrgHXE0AORwkLCNpjy-119" value="" style="fillColor=#F6F6F6;strokeColor=none;shadow=0;gradientColor=none;fontSize=14;align=left;spacing=10;fontColor=#717171;9E9E9E;verticalAlign=top;spacingTop=-4;fontStyle=0;spacingLeft=40;html=1;container=0;" vertex="1" parent="1">
          <mxGeometry x="50" y="250" width="1080" height="430" as="geometry" />
        </mxCell>
        <mxCell id="GuzJ8BqgIlNCJu6hI-l5-1017" value="Storage" style="rounded=1;absoluteArcSize=1;arcSize=2;html=1;strokeColor=#000000;gradientColor=none;shadow=0;dashed=1;fontSize=12;fontColor=#9E9E9E;align=left;verticalAlign=top;spacing=10;spacingTop=-4;fillColor=none;dashPattern=1 2;strokeWidth=2;container=0;" parent="1" vertex="1">
          <mxGeometry x="83" y="560" width="200.25" height="110" as="geometry" />
        </mxCell>
        <mxCell id="GuzJ8BqgIlNCJu6hI-l5-1137" value="" style="strokeColor=#dddddd;shadow=1;strokeWidth=1;rounded=1;absoluteArcSize=1;arcSize=2;" parent="1" vertex="1">
          <mxGeometry x="100.87" y="591" width="158.75" height="60" as="geometry" />
        </mxCell>
        <mxCell id="tkHrgHXE0AORwkLCNpjy-45" value="&amp;lt;Consume&amp;gt;" style="edgeStyle=orthogonalEdgeStyle;rounded=0;orthogonalLoop=1;jettySize=auto;html=1;entryX=0.5;entryY=0;entryDx=0;entryDy=0;" edge="1" parent="1" source="tkHrgHXE0AORwkLCNpjy-1" target="tkHrgHXE0AORwkLCNpjy-42">
          <mxGeometry relative="1" as="geometry" />
        </mxCell>
        <mxCell id="tkHrgHXE0AORwkLCNpjy-1" value="Mahasiswa" style="strokeColor=#dddddd;fillColor=#ffffff;shadow=1;strokeWidth=1;rounded=1;absoluteArcSize=1;arcSize=2;labelPosition=center;verticalLabelPosition=middle;align=center;verticalAlign=bottom;spacingLeft=0;fontColor=#999999;fontSize=12;whiteSpace=wrap;spacingBottom=2;html=1;" vertex="1" parent="1">
          <mxGeometry x="145.25" y="120" width="70" height="70" as="geometry" />
        </mxCell>
        <mxCell id="tkHrgHXE0AORwkLCNpjy-2" value="" style="dashed=0;connectable=0;html=1;fillColor=#757575;strokeColor=none;shape=mxgraph.gcp2.users;part=1;" vertex="1" parent="tkHrgHXE0AORwkLCNpjy-1">
          <mxGeometry x="0.5" width="50" height="31.5" relative="1" as="geometry">
            <mxPoint x="-25" y="19.25" as="offset" />
          </mxGeometry>
        </mxCell>
        <mxCell id="tkHrgHXE0AORwkLCNpjy-50" value="" style="edgeStyle=orthogonalEdgeStyle;rounded=0;orthogonalLoop=1;jettySize=auto;html=1;" edge="1" parent="1" source="tkHrgHXE0AORwkLCNpjy-42" target="tkHrgHXE0AORwkLCNpjy-49">
          <mxGeometry relative="1" as="geometry" />
        </mxCell>
        <mxCell id="tkHrgHXE0AORwkLCNpjy-55" value="&amp;lt;Access&amp;gt;" style="edgeLabel;html=1;align=center;verticalAlign=middle;resizable=0;points=[];" vertex="1" connectable="0" parent="tkHrgHXE0AORwkLCNpjy-50">
          <mxGeometry x="-0.1057" y="1" relative="1" as="geometry">
            <mxPoint as="offset" />
          </mxGeometry>
        </mxCell>
        <mxCell id="tkHrgHXE0AORwkLCNpjy-42" value="" style="strokeColor=#dddddd;shadow=1;strokeWidth=1;rounded=1;absoluteArcSize=1;arcSize=2;" vertex="1" parent="1">
          <mxGeometry x="79" y="280" width="202.25" height="60" as="geometry" />
        </mxCell>
        <mxCell id="tkHrgHXE0AORwkLCNpjy-47" value="" style="dashed=0;connectable=0;html=1;fillColor=#757575;strokeColor=none;shape=mxgraph.gcp2.application;part=1;" vertex="1" parent="1">
          <mxGeometry x="85.25" y="290" width="50" height="40" as="geometry" />
        </mxCell>
        <mxCell id="tkHrgHXE0AORwkLCNpjy-48" value="&lt;font style=&quot;font-size: 12px;&quot;&gt;myITS StudentConnect&lt;/font&gt;" style="text;strokeColor=none;fillColor=none;html=1;fontSize=24;fontStyle=1;verticalAlign=middle;align=center;" vertex="1" parent="1">
          <mxGeometry x="155.25" y="290" width="100" height="40" as="geometry" />
        </mxCell>
        <mxCell id="tkHrgHXE0AORwkLCNpjy-54" style="edgeStyle=orthogonalEdgeStyle;rounded=0;orthogonalLoop=1;jettySize=auto;html=1;" edge="1" parent="1" source="tkHrgHXE0AORwkLCNpjy-49" target="GuzJ8BqgIlNCJu6hI-l5-1137">
          <mxGeometry relative="1" as="geometry" />
        </mxCell>
        <mxCell id="tkHrgHXE0AORwkLCNpjy-56" value="&amp;lt;Access&amp;gt;" style="edgeLabel;html=1;align=center;verticalAlign=middle;resizable=0;points=[];" vertex="1" connectable="0" parent="tkHrgHXE0AORwkLCNpjy-54">
          <mxGeometry x="0.0253" y="-1" relative="1" as="geometry">
            <mxPoint as="offset" />
          </mxGeometry>
        </mxCell>
        <mxCell id="tkHrgHXE0AORwkLCNpjy-58" value="" style="edgeStyle=orthogonalEdgeStyle;rounded=0;orthogonalLoop=1;jettySize=auto;html=1;" edge="1" parent="1" source="tkHrgHXE0AORwkLCNpjy-49" target="tkHrgHXE0AORwkLCNpjy-57">
          <mxGeometry relative="1" as="geometry" />
        </mxCell>
        <mxCell id="tkHrgHXE0AORwkLCNpjy-61" value="&amp;lt;Accsess&amp;gt;" style="edgeLabel;html=1;align=center;verticalAlign=middle;resizable=0;points=[];" vertex="1" connectable="0" parent="tkHrgHXE0AORwkLCNpjy-58">
          <mxGeometry x="-0.2178" y="-2" relative="1" as="geometry">
            <mxPoint as="offset" />
          </mxGeometry>
        </mxCell>
        <mxCell id="tkHrgHXE0AORwkLCNpjy-49" value="" style="strokeColor=#dddddd;shadow=1;strokeWidth=1;rounded=1;absoluteArcSize=1;arcSize=2;" vertex="1" parent="1">
          <mxGeometry x="79" y="420" width="202.25" height="60" as="geometry" />
        </mxCell>
        <mxCell id="tkHrgHXE0AORwkLCNpjy-52" value="&lt;span style=&quot;font-size: 12px;&quot;&gt;Input Portofolio&lt;/span&gt;" style="text;strokeColor=none;fillColor=none;html=1;fontSize=24;fontStyle=1;verticalAlign=middle;align=center;" vertex="1" parent="1">
          <mxGeometry x="155.25" y="430" width="100" height="40" as="geometry" />
        </mxCell>
        <mxCell id="tkHrgHXE0AORwkLCNpjy-53" value="" style="dashed=0;connectable=0;html=1;fillColor=#757575;strokeColor=none;shape=mxgraph.gcp2.application;part=1;" vertex="1" parent="1">
          <mxGeometry x="85.25" y="430" width="50" height="40" as="geometry" />
        </mxCell>
        <mxCell id="tkHrgHXE0AORwkLCNpjy-74" style="edgeStyle=orthogonalEdgeStyle;rounded=0;orthogonalLoop=1;jettySize=auto;html=1;entryX=0.5;entryY=1;entryDx=0;entryDy=0;" edge="1" parent="1" source="tkHrgHXE0AORwkLCNpjy-57" target="tkHrgHXE0AORwkLCNpjy-68">
          <mxGeometry relative="1" as="geometry" />
        </mxCell>
        <mxCell id="tkHrgHXE0AORwkLCNpjy-88" value="&amp;lt;Realizes&amp;gt;" style="edgeLabel;html=1;align=center;verticalAlign=middle;resizable=0;points=[];" vertex="1" connectable="0" parent="tkHrgHXE0AORwkLCNpjy-74">
          <mxGeometry x="-0.0573" y="2" relative="1" as="geometry">
            <mxPoint as="offset" />
          </mxGeometry>
        </mxCell>
        <mxCell id="tkHrgHXE0AORwkLCNpjy-75" style="edgeStyle=orthogonalEdgeStyle;rounded=0;orthogonalLoop=1;jettySize=auto;html=1;entryX=0.5;entryY=0;entryDx=0;entryDy=0;" edge="1" parent="1" source="tkHrgHXE0AORwkLCNpjy-57" target="tkHrgHXE0AORwkLCNpjy-71">
          <mxGeometry relative="1" as="geometry" />
        </mxCell>
        <mxCell id="tkHrgHXE0AORwkLCNpjy-89" value="&amp;lt;Realizes&amp;gt;" style="edgeLabel;html=1;align=center;verticalAlign=middle;resizable=0;points=[];" vertex="1" connectable="0" parent="tkHrgHXE0AORwkLCNpjy-75">
          <mxGeometry x="-0.1612" y="2" relative="1" as="geometry">
            <mxPoint as="offset" />
          </mxGeometry>
        </mxCell>
        <mxCell id="tkHrgHXE0AORwkLCNpjy-57" value="" style="strokeColor=#dddddd;shadow=1;strokeWidth=1;rounded=1;absoluteArcSize=1;arcSize=2;" vertex="1" parent="1">
          <mxGeometry x="380" y="420" width="202.25" height="60" as="geometry" />
        </mxCell>
        <mxCell id="tkHrgHXE0AORwkLCNpjy-63" value="&lt;b&gt;Proses Verifikasi Portofolio&lt;/b&gt;" style="text;html=1;align=center;verticalAlign=middle;whiteSpace=wrap;rounded=0;" vertex="1" parent="1">
          <mxGeometry x="461.25" y="435" width="98.75" height="30" as="geometry" />
        </mxCell>
        <mxCell id="tkHrgHXE0AORwkLCNpjy-66" value="" style="shape=image;html=1;verticalAlign=top;verticalLabelPosition=bottom;labelBackgroundColor=#ffffff;imageAspect=0;aspect=fixed;image=https://cdn1.iconfinder.com/data/icons/seo-and-web-development-6/32/development_listing_search_magnifier_magnifying_glass_loupe-128.png" vertex="1" parent="1">
          <mxGeometry x="397.25" y="430" width="40" height="40" as="geometry" />
        </mxCell>
        <mxCell id="tkHrgHXE0AORwkLCNpjy-68" value="" style="strokeColor=#dddddd;shadow=1;strokeWidth=1;rounded=1;absoluteArcSize=1;arcSize=2;" vertex="1" parent="1">
          <mxGeometry x="380" y="280" width="202.25" height="60" as="geometry" />
        </mxCell>
        <mxCell id="tkHrgHXE0AORwkLCNpjy-69" value="&lt;b&gt;Portofolio Logbook dan Organisasi&lt;/b&gt;" style="text;html=1;align=center;verticalAlign=middle;whiteSpace=wrap;rounded=0;" vertex="1" parent="1">
          <mxGeometry x="461.25" y="295" width="98.75" height="30" as="geometry" />
        </mxCell>
        <mxCell id="tkHrgHXE0AORwkLCNpjy-70" value="" style="shape=image;html=1;verticalAlign=top;verticalLabelPosition=bottom;labelBackgroundColor=#ffffff;imageAspect=0;aspect=fixed;image=https://cdn1.iconfinder.com/data/icons/seo-and-web-development-6/32/development_listing_search_magnifier_magnifying_glass_loupe-128.png" vertex="1" parent="1">
          <mxGeometry x="397.25" y="290" width="40" height="40" as="geometry" />
        </mxCell>
        <mxCell id="tkHrgHXE0AORwkLCNpjy-71" value="" style="strokeColor=#dddddd;shadow=1;strokeWidth=1;rounded=1;absoluteArcSize=1;arcSize=24;" vertex="1" parent="1">
          <mxGeometry x="380" y="555" width="202.25" height="60" as="geometry" />
        </mxCell>
        <mxCell id="tkHrgHXE0AORwkLCNpjy-72" value="&lt;b&gt;&lt;font style=&quot;font-size: 10px;&quot;&gt;Portofolio Kompetisi, Magang, Kewirausahaan dan lain-lain&lt;/font&gt;&lt;/b&gt;" style="text;html=1;align=center;verticalAlign=middle;whiteSpace=wrap;rounded=0;" vertex="1" parent="1">
          <mxGeometry x="461.25" y="570" width="98.75" height="30" as="geometry" />
        </mxCell>
        <mxCell id="tkHrgHXE0AORwkLCNpjy-73" value="" style="shape=image;html=1;verticalAlign=top;verticalLabelPosition=bottom;labelBackgroundColor=#ffffff;imageAspect=0;aspect=fixed;image=https://cdn1.iconfinder.com/data/icons/seo-and-web-development-6/32/development_listing_search_magnifier_magnifying_glass_loupe-128.png" vertex="1" parent="1">
          <mxGeometry x="397.25" y="565" width="40" height="40" as="geometry" />
        </mxCell>
        <mxCell id="tkHrgHXE0AORwkLCNpjy-86" style="edgeStyle=orthogonalEdgeStyle;rounded=0;orthogonalLoop=1;jettySize=auto;html=1;entryX=0.5;entryY=0;entryDx=0;entryDy=0;" edge="1" parent="1" source="tkHrgHXE0AORwkLCNpjy-79" target="tkHrgHXE0AORwkLCNpjy-68">
          <mxGeometry relative="1" as="geometry" />
        </mxCell>
        <mxCell id="tkHrgHXE0AORwkLCNpjy-87" value="&amp;lt;Verify&amp;gt;" style="edgeLabel;html=1;align=center;verticalAlign=middle;resizable=0;points=[];" vertex="1" connectable="0" parent="tkHrgHXE0AORwkLCNpjy-86">
          <mxGeometry x="0.1345" y="-1" relative="1" as="geometry">
            <mxPoint as="offset" />
          </mxGeometry>
        </mxCell>
        <mxCell id="tkHrgHXE0AORwkLCNpjy-79" value="Dosen Wali" style="strokeColor=#dddddd;fillColor=#ffffff;shadow=1;strokeWidth=1;rounded=1;absoluteArcSize=1;arcSize=2;labelPosition=center;verticalLabelPosition=middle;align=center;verticalAlign=bottom;spacingLeft=0;fontColor=#999999;fontSize=12;whiteSpace=wrap;spacingBottom=2;html=1;container=0;" vertex="1" parent="1">
          <mxGeometry x="446.13" y="120" width="70" height="70" as="geometry" />
        </mxCell>
        <mxCell id="tkHrgHXE0AORwkLCNpjy-83" value="" style="sketch=0;outlineConnect=0;fontColor=#232F3E;gradientColor=none;fillColor=#232F3D;strokeColor=none;dashed=0;verticalLabelPosition=bottom;verticalAlign=top;align=center;html=1;fontSize=12;fontStyle=0;aspect=fixed;pointerEvents=1;shape=mxgraph.aws4.user;" vertex="1" parent="1">
          <mxGeometry x="462" y="129" width="39" height="39" as="geometry" />
        </mxCell>
        <mxCell id="tkHrgHXE0AORwkLCNpjy-94" style="edgeStyle=orthogonalEdgeStyle;rounded=0;orthogonalLoop=1;jettySize=auto;html=1;entryX=0.5;entryY=1;entryDx=0;entryDy=0;" edge="1" parent="1" source="tkHrgHXE0AORwkLCNpjy-91" target="tkHrgHXE0AORwkLCNpjy-71">
          <mxGeometry relative="1" as="geometry" />
        </mxCell>
        <mxCell id="tkHrgHXE0AORwkLCNpjy-95" value="&amp;lt;Verify&amp;gt;" style="edgeLabel;html=1;align=center;verticalAlign=middle;resizable=0;points=[];" vertex="1" connectable="0" parent="tkHrgHXE0AORwkLCNpjy-94">
          <mxGeometry x="-0.1284" relative="1" as="geometry">
            <mxPoint as="offset" />
          </mxGeometry>
        </mxCell>
        <mxCell id="tkHrgHXE0AORwkLCNpjy-91" value="Ditmawa" style="strokeColor=#dddddd;fillColor=#ffffff;shadow=1;strokeWidth=1;rounded=1;absoluteArcSize=1;arcSize=2;labelPosition=center;verticalLabelPosition=middle;align=center;verticalAlign=bottom;spacingLeft=0;fontColor=#999999;fontSize=12;whiteSpace=wrap;spacingBottom=2;html=1;container=0;" vertex="1" parent="1">
          <mxGeometry x="446.13" y="690" width="70" height="70" as="geometry" />
        </mxCell>
        <mxCell id="tkHrgHXE0AORwkLCNpjy-93" value="" style="sketch=0;pointerEvents=1;shadow=0;dashed=0;html=1;strokeColor=none;labelPosition=center;verticalLabelPosition=bottom;verticalAlign=top;align=center;fillColor=#515151;shape=mxgraph.mscae.system_center.admin_console" vertex="1" parent="1">
          <mxGeometry x="461.13" y="701" width="50" height="36" as="geometry" />
        </mxCell>
        <mxCell id="tkHrgHXE0AORwkLCNpjy-142" style="edgeStyle=orthogonalEdgeStyle;rounded=0;orthogonalLoop=1;jettySize=auto;html=1;entryX=0;entryY=0.5;entryDx=0;entryDy=0;" edge="1" parent="1" source="tkHrgHXE0AORwkLCNpjy-99" target="tkHrgHXE0AORwkLCNpjy-137">
          <mxGeometry relative="1" as="geometry" />
        </mxCell>
        <mxCell id="tkHrgHXE0AORwkLCNpjy-143" value="&amp;lt;Access&amp;gt;" style="edgeLabel;html=1;align=center;verticalAlign=middle;resizable=0;points=[];" vertex="1" connectable="0" parent="tkHrgHXE0AORwkLCNpjy-142">
          <mxGeometry x="-0.0847" y="-1" relative="1" as="geometry">
            <mxPoint x="-1" as="offset" />
          </mxGeometry>
        </mxCell>
        <mxCell id="tkHrgHXE0AORwkLCNpjy-99" value="" style="strokeColor=#dddddd;shadow=1;strokeWidth=1;rounded=1;absoluteArcSize=1;arcSize=2;" vertex="1" parent="1">
          <mxGeometry x="650" y="420" width="190" height="60" as="geometry" />
        </mxCell>
        <mxCell id="tkHrgHXE0AORwkLCNpjy-100" value="&lt;span style=&quot;font-size: 12px;&quot;&gt;Hasil Penilaian SKEM&lt;/span&gt;" style="text;strokeColor=none;fillColor=none;html=1;fontSize=24;fontStyle=1;verticalAlign=middle;align=center;" vertex="1" parent="1">
          <mxGeometry x="720" y="430" width="100" height="40" as="geometry" />
        </mxCell>
        <mxCell id="tkHrgHXE0AORwkLCNpjy-101" value="" style="dashed=0;connectable=0;html=1;fillColor=#757575;strokeColor=none;shape=mxgraph.gcp2.application;part=1;" vertex="1" parent="1">
          <mxGeometry x="650" y="430" width="50" height="40" as="geometry" />
        </mxCell>
        <mxCell id="tkHrgHXE0AORwkLCNpjy-102" style="edgeStyle=orthogonalEdgeStyle;rounded=0;orthogonalLoop=1;jettySize=auto;html=1;entryX=0.55;entryY=0.011;entryDx=0;entryDy=0;entryPerimeter=0;" edge="1" parent="1" source="tkHrgHXE0AORwkLCNpjy-68" target="tkHrgHXE0AORwkLCNpjy-99">
          <mxGeometry relative="1" as="geometry" />
        </mxCell>
        <mxCell id="tkHrgHXE0AORwkLCNpjy-104" value="&amp;lt;Access&amp;gt;" style="edgeLabel;html=1;align=center;verticalAlign=middle;resizable=0;points=[];" vertex="1" connectable="0" parent="tkHrgHXE0AORwkLCNpjy-102">
          <mxGeometry x="-0.5037" y="-2" relative="1" as="geometry">
            <mxPoint as="offset" />
          </mxGeometry>
        </mxCell>
        <mxCell id="tkHrgHXE0AORwkLCNpjy-103" style="edgeStyle=orthogonalEdgeStyle;rounded=0;orthogonalLoop=1;jettySize=auto;html=1;entryX=0.55;entryY=1.041;entryDx=0;entryDy=0;entryPerimeter=0;" edge="1" parent="1" source="tkHrgHXE0AORwkLCNpjy-71" target="tkHrgHXE0AORwkLCNpjy-99">
          <mxGeometry relative="1" as="geometry" />
        </mxCell>
        <mxCell id="tkHrgHXE0AORwkLCNpjy-106" value="&amp;lt;Access&amp;gt;" style="edgeLabel;html=1;align=center;verticalAlign=middle;resizable=0;points=[];" vertex="1" connectable="0" parent="tkHrgHXE0AORwkLCNpjy-103">
          <mxGeometry x="-0.4555" y="-4" relative="1" as="geometry">
            <mxPoint as="offset" />
          </mxGeometry>
        </mxCell>
        <mxCell id="tkHrgHXE0AORwkLCNpjy-108" value="" style="fontColor=#0066CC;verticalAlign=top;verticalLabelPosition=bottom;labelPosition=center;align=center;html=1;outlineConnect=0;fillColor=#CCCCCC;strokeColor=#6881B3;gradientColor=none;gradientDirection=north;strokeWidth=2;shape=mxgraph.networks.server_storage;" vertex="1" parent="1">
          <mxGeometry x="120" y="600" width="40" height="46" as="geometry" />
        </mxCell>
        <mxCell id="tkHrgHXE0AORwkLCNpjy-109" value="&lt;span style=&quot;font-size: 12px;&quot;&gt;Repository&lt;/span&gt;" style="text;strokeColor=none;fillColor=none;html=1;fontSize=24;fontStyle=1;verticalAlign=middle;align=center;" vertex="1" parent="1">
          <mxGeometry x="150.25" y="601" width="100" height="40" as="geometry" />
        </mxCell>
        <mxCell id="tkHrgHXE0AORwkLCNpjy-115" style="edgeStyle=orthogonalEdgeStyle;rounded=0;orthogonalLoop=1;jettySize=auto;html=1;exitX=0.205;exitY=1.056;exitDx=0;exitDy=0;exitPerimeter=0;" edge="1" parent="1" source="tkHrgHXE0AORwkLCNpjy-57" target="GuzJ8BqgIlNCJu6hI-l5-1137">
          <mxGeometry relative="1" as="geometry">
            <Array as="points">
              <mxPoint x="421" y="520" />
              <mxPoint x="300" y="520" />
              <mxPoint x="300" y="621" />
            </Array>
          </mxGeometry>
        </mxCell>
        <mxCell id="tkHrgHXE0AORwkLCNpjy-116" value="&amp;lt;Access&amp;gt;" style="edgeLabel;html=1;align=center;verticalAlign=middle;resizable=0;points=[];" vertex="1" connectable="0" parent="tkHrgHXE0AORwkLCNpjy-115">
          <mxGeometry x="-0.3071" y="1" relative="1" as="geometry">
            <mxPoint as="offset" />
          </mxGeometry>
        </mxCell>
        <mxCell id="tkHrgHXE0AORwkLCNpjy-117" value="Process" style="rounded=1;absoluteArcSize=1;arcSize=2;html=1;strokeColor=#000000;gradientColor=none;shadow=0;dashed=1;fontSize=12;fontColor=#9E9E9E;align=left;verticalAlign=top;spacing=10;spacingTop=-4;fillColor=none;dashPattern=1 2;strokeWidth=2;container=0;" vertex="1" parent="1">
          <mxGeometry x="359.75" y="250" width="240.25" height="390" as="geometry" />
        </mxCell>
        <mxCell id="tkHrgHXE0AORwkLCNpjy-137" value="" style="strokeColor=#dddddd;shadow=1;strokeWidth=1;rounded=1;absoluteArcSize=1;arcSize=2;" vertex="1" parent="1">
          <mxGeometry x="915.75" y="420" width="202.25" height="60" as="geometry" />
        </mxCell>
        <mxCell id="tkHrgHXE0AORwkLCNpjy-138" value="&lt;span style=&quot;font-size: 12px;&quot;&gt;Ajuan Rencana SKEM&lt;/span&gt;" style="text;strokeColor=none;fillColor=none;html=1;fontSize=24;fontStyle=1;verticalAlign=middle;align=center;" vertex="1" parent="1">
          <mxGeometry x="992" y="430" width="100" height="40" as="geometry" />
        </mxCell>
        <mxCell id="tkHrgHXE0AORwkLCNpjy-139" value="" style="dashed=0;connectable=0;html=1;fillColor=#757575;strokeColor=none;shape=mxgraph.gcp2.application;part=1;" vertex="1" parent="1">
          <mxGeometry x="922" y="430" width="50" height="40" as="geometry" />
        </mxCell>
      </root>
    </mxGraphModel>
  </diagram>
</mxfile>
